<svg width="102" height="31" viewBox="0 0 102 31" fill="none" xmlns="http://www.w3.org/2000/svg">
<path d="M0.952 2.588C1.38133 2.38267 1.96 2.21467 2.688 2.084C3.43467 1.95333 4.256 1.86 5.152 1.804C5.264 1.78533 5.376 1.776 5.488 1.776C5.61867 1.75733 5.74933 1.748 5.88 1.748C6.44 1.71067 7 1.70133 7.56 1.72C8.13867 1.72 8.68 1.73867 9.184 1.776C9.70667 1.79467 10.1827 1.832 10.612 1.888C11.06 1.944 11.4333 2.00933 11.732 2.084C11.956 2.14 12.1053 2.28933 12.18 2.532C12.2733 2.756 12.292 2.99867 12.236 3.26C12.1987 3.50267 12.1053 3.71733 11.956 3.904C11.8253 4.09067 11.648 4.156 11.424 4.1C11.032 4.00667 10.5093 3.932 9.856 3.876C9.22133 3.82 8.54 3.792 7.812 3.792C7.7 6.648 7.62533 9.084 7.588 11.1C7.55067 13.0973 7.54133 14.768 7.56 16.112C7.57867 17.4373 7.60667 18.4827 7.644 19.248C7.7 19.9947 7.756 20.5547 7.812 20.928C7.868 21.3013 7.77467 21.6 7.532 21.824C7.308 22.048 7.028 22.188 6.692 22.244C6.356 22.3 6.02 22.2533 5.684 22.104C5.36667 21.9547 5.13333 21.7027 4.984 21.348C4.816 20.9 4.62933 20.1813 4.424 19.192C4.21867 18.2027 4.05067 16.9707 3.92 15.496C3.808 14.0213 3.752 12.3133 3.752 10.372C3.752 8.43067 3.87333 6.29333 4.116 3.96C3.57467 4.016 3.08 4.09067 2.632 4.184C2.20267 4.25867 1.85733 4.36133 1.596 4.492C1.39067 4.604 1.19467 4.58533 1.008 4.436C0.84 4.28667 0.718667 4.09067 0.644 3.848C0.569333 3.60533 0.550667 3.36267 0.588 3.12C0.625333 2.85867 0.746667 2.68133 0.952 2.588ZM15.3565 8.3C16.1591 8.31867 16.8498 8.54267 17.4285 8.972C18.0258 9.38267 18.5018 9.91467 18.8565 10.568C19.2298 11.2213 19.5005 11.968 19.6685 12.808C19.8365 13.6293 19.9018 14.4693 19.8645 15.328C19.8271 16.1867 19.6965 17.0267 19.4725 17.848C19.2485 18.6507 18.9311 19.3693 18.5205 20.004C18.1098 20.62 17.6058 21.1053 17.0085 21.46C16.4298 21.8147 15.7578 21.9733 14.9925 21.936C14.0031 21.88 13.1538 21.5067 12.4445 20.816C11.7538 20.1067 11.2218 19.248 10.8485 18.24C10.4938 17.232 10.3071 16.1493 10.2885 14.992C10.2698 13.816 10.4378 12.7333 10.7925 11.744C11.1658 10.7547 11.7258 9.93333 12.4725 9.28C13.2191 8.62667 14.1805 8.3 15.3565 8.3ZM15.1045 20.536C15.8511 20.424 16.4765 20.0787 16.9805 19.5C17.4845 18.9213 17.8578 18.24 18.1005 17.456C18.3618 16.6533 18.4925 15.804 18.4925 14.908C18.5111 14.012 18.3991 13.1907 18.1565 12.444C17.9325 11.6787 17.5871 11.0347 17.1205 10.512C16.6538 9.98933 16.0658 9.71867 15.3565 9.7C15.0018 9.68133 14.7031 9.94267 14.4605 10.484C14.2178 11.0253 14.0311 11.7067 13.9005 12.528C13.7885 13.3307 13.7231 14.2173 13.7045 15.188C13.6858 16.14 13.7231 17.0267 13.8165 17.848C13.9098 18.6507 14.0591 19.3133 14.2645 19.836C14.4885 20.3587 14.7685 20.592 15.1045 20.536ZM27.3698 5.864C27.3698 5.45333 27.3324 5.04267 27.2578 4.632C27.2018 4.20267 27.0991 3.82 26.9498 3.484C26.8004 3.148 26.6511 2.93333 26.5018 2.84C26.3711 2.728 26.2311 2.68133 26.0818 2.7C25.7458 2.73733 25.4751 2.97067 25.2698 3.4C25.0831 3.82933 24.9431 4.39867 24.8498 5.108C24.7564 5.79867 24.7004 6.60133 24.6818 7.516C24.6631 8.412 24.6818 9.35467 24.7378 10.344C25.0551 10.344 25.4284 10.3253 25.8578 10.288C26.2871 10.2507 26.6231 10.1293 26.8658 9.924C27.0524 9.77467 27.2391 9.71867 27.4258 9.756C27.6124 9.79333 27.7618 9.87733 27.8738 10.008C27.9858 10.1387 28.0418 10.2973 28.0418 10.484C28.0418 10.6707 27.9484 10.8387 27.7618 10.988C27.3324 11.3427 26.8658 11.5573 26.3618 11.632C25.8578 11.7067 25.3444 11.744 24.8218 11.744C24.8964 12.8267 24.9898 13.9187 25.1018 15.02C25.2324 16.1027 25.3631 17.1107 25.4938 18.044C25.6244 18.9587 25.7458 19.7707 25.8578 20.48C25.9884 21.1893 26.0818 21.712 26.1378 22.048C26.1751 22.272 26.0631 22.468 25.8018 22.636C25.5591 22.7853 25.2698 22.888 24.9338 22.944C24.5978 22.9813 24.2804 22.9627 23.9818 22.888C23.6831 22.8133 23.5058 22.664 23.4498 22.44C23.3191 22.104 23.1511 21.572 22.9458 20.844C22.7404 20.116 22.5351 19.2667 22.3298 18.296C22.1244 17.3067 21.9378 16.2333 21.7698 15.076C21.6018 13.9187 21.4898 12.752 21.4338 11.576C20.8551 11.6133 20.4258 11.7253 20.1458 11.912C19.9404 12.0427 19.7538 12.08 19.5858 12.024C19.3991 11.9493 19.2591 11.8467 19.1658 11.716C19.0724 11.5667 19.0351 11.3987 19.0538 11.212C19.0538 11.0253 19.1564 10.8667 19.3618 10.736C19.6791 10.5307 20.0151 10.3907 20.3698 10.316C20.7244 10.2413 21.0698 10.1947 21.4058 10.176C21.4058 9.056 21.4711 7.98267 21.6018 6.956C21.7324 5.91067 21.9751 4.98667 22.3298 4.184C22.6844 3.36267 23.1511 2.7 23.7298 2.196C24.3271 1.67333 25.0738 1.37467 25.9698 1.3C26.5671 1.244 27.0431 1.40267 27.3978 1.776C27.7711 2.13067 28.0511 2.52267 28.2378 2.952C28.4244 3.38133 28.5551 3.85733 28.6298 4.38C28.7231 4.884 28.7698 5.37867 28.7698 5.864C28.7698 6.088 28.6951 6.26533 28.5458 6.396C28.3964 6.508 28.2378 6.564 28.0698 6.564C27.9018 6.564 27.7431 6.508 27.5938 6.396C27.4444 6.26533 27.3698 6.088 27.3698 5.864ZM32.2201 6.872C32.1828 7.18933 32.1268 7.66533 32.0521 8.3C31.9961 8.916 31.9308 9.59733 31.8561 10.344C31.8001 11.0907 31.7535 11.856 31.7161 12.64C31.6975 13.4053 31.6975 14.096 31.7161 14.712C31.7535 15.328 31.8281 15.8227 31.9401 16.196C32.0521 16.5693 32.2201 16.728 32.4441 16.672C32.6868 16.616 32.9388 16.364 33.2001 15.916C33.4801 15.468 33.7601 14.9173 34.0401 14.264C34.3201 13.6107 34.5908 12.9107 34.8521 12.164C35.1321 11.3987 35.3748 10.6893 35.5801 10.036C35.7855 9.364 35.9535 8.79467 36.0841 8.328C36.2335 7.84267 36.3175 7.55333 36.3361 7.46C36.3921 7.236 36.5695 7.07733 36.8681 6.984C37.1855 6.89067 37.5215 6.86267 37.8761 6.9C38.2308 6.91867 38.5388 7.00267 38.8001 7.152C39.0801 7.28267 39.2201 7.46 39.2201 7.684L38.8281 21.208C38.8281 21.4507 38.6788 21.628 38.3801 21.74C38.0815 21.852 37.7548 21.908 37.4001 21.908C37.0641 21.8893 36.7561 21.824 36.4761 21.712C36.1961 21.5813 36.0561 21.404 36.0561 21.18L36.1961 12.752C36.0655 13.1067 35.8788 13.592 35.6361 14.208C35.4121 14.8053 35.1415 15.3933 34.8241 15.972C34.5068 16.532 34.1428 17.0267 33.7321 17.456C33.3215 17.8667 32.8735 18.072 32.3881 18.072C31.5668 18.0533 30.9041 17.8293 30.4001 17.4C29.9148 16.9707 29.5415 16.4293 29.2801 15.776C29.0188 15.104 28.8508 14.3573 28.7761 13.536C28.7015 12.696 28.6828 11.8653 28.7201 11.044C28.7575 10.2227 28.8135 9.43867 28.8881 8.692C28.9815 7.94533 29.0561 7.32 29.1121 6.816C29.1495 6.592 29.3361 6.424 29.6721 6.312C30.0081 6.2 30.3628 6.15333 30.7361 6.172C31.1281 6.172 31.4828 6.23733 31.8001 6.368C32.1175 6.48 32.2575 6.648 32.2201 6.872ZM41.7718 2.056L45.5798 5.892C45.7478 6.06 45.8318 6.24667 45.8318 6.452C45.8505 6.65733 45.8038 6.844 45.6918 7.012C45.5985 7.16133 45.4585 7.264 45.2718 7.32C45.1038 7.376 44.9265 7.33867 44.7398 7.208L40.1198 4.184C39.9145 4.05333 39.8492 3.83867 39.9238 3.54C40.0172 3.24133 40.1758 2.952 40.3998 2.672C40.6238 2.392 40.8665 2.17733 41.1278 2.028C41.3892 1.87867 41.6038 1.888 41.7718 2.056Z" fill="#FF0A62"/>
<path d="M68.516 3.092C68.4787 3.85733 68.4507 4.58533 68.432 5.276C68.4133 5.948 68.3947 6.61067 68.376 7.264C68.9173 7.30133 69.4307 7.33867 69.916 7.376C70.4013 7.39467 70.8493 7.404 71.26 7.404C71.484 7.404 71.652 7.47867 71.764 7.628C71.8947 7.75867 71.96 7.908 71.96 8.076C71.96 8.244 71.8947 8.40267 71.764 8.552C71.652 8.68267 71.484 8.748 71.26 8.748C70.8307 8.748 70.364 8.73867 69.86 8.72C69.3747 8.70133 68.8613 8.68267 68.32 8.664C68.264 10.7547 68.2267 12.556 68.208 14.068C68.208 15.5613 68.208 16.8307 68.208 17.876C68.2267 18.9213 68.2547 19.7613 68.292 20.396C68.348 21.012 68.404 21.4787 68.46 21.796C68.516 22.1693 68.4227 22.468 68.18 22.692C67.956 22.916 67.676 23.056 67.34 23.112C67.004 23.168 66.668 23.1213 66.332 22.972C66.0147 22.8227 65.7813 22.5707 65.632 22.216C65.4827 21.8427 65.3147 21.2547 65.128 20.452C64.96 19.6493 64.8107 18.6693 64.68 17.512C64.5493 16.336 64.456 15.0013 64.4 13.508C64.3627 11.996 64.3907 10.344 64.484 8.552C64.0547 8.57067 63.6627 8.608 63.308 8.664C62.9533 8.72 62.664 8.804 62.44 8.916C62.2347 9.028 62.048 9.04667 61.88 8.972C61.712 8.87867 61.5907 8.75733 61.516 8.608C61.4227 8.45867 61.404 8.29067 61.46 8.104C61.4973 7.91733 61.6187 7.77733 61.824 7.684C62.16 7.516 62.5613 7.39467 63.028 7.32C63.5133 7.22667 64.0267 7.17067 64.568 7.152C64.624 6.44267 64.6893 5.73333 64.764 5.024C64.8387 4.31467 64.932 3.568 65.044 2.784C65.0813 2.56 65.2773 2.41067 65.632 2.336C66.0053 2.24267 66.4067 2.21467 66.836 2.252C67.2653 2.28933 67.648 2.38267 67.984 2.532C68.3387 2.68133 68.516 2.868 68.516 3.092ZM76.169 8.3C76.9716 8.31867 77.6623 8.54267 78.241 8.972C78.8383 9.38267 79.3143 9.91467 79.669 10.568C80.0423 11.2213 80.313 11.968 80.481 12.808C80.649 13.6293 80.7143 14.4693 80.677 15.328C80.6396 16.1867 80.509 17.0267 80.285 17.848C80.061 18.6507 79.7436 19.3693 79.333 20.004C78.9223 20.62 78.4183 21.1053 77.821 21.46C77.2423 21.8147 76.5703 21.9733 75.805 21.936C74.8156 21.88 73.9663 21.5067 73.257 20.816C72.5663 20.1067 72.0343 19.248 71.661 18.24C71.3063 17.232 71.1196 16.1493 71.101 14.992C71.0823 13.816 71.2503 12.7333 71.605 11.744C71.9783 10.7547 72.5383 9.93333 73.285 9.28C74.0316 8.62667 74.993 8.3 76.169 8.3ZM75.917 20.536C76.6636 20.424 77.289 20.0787 77.793 19.5C78.297 18.9213 78.6703 18.24 78.913 17.456C79.1743 16.6533 79.305 15.804 79.305 14.908C79.3236 14.012 79.2116 13.1907 78.969 12.444C78.745 11.6787 78.3996 11.0347 77.933 10.512C77.4663 9.98933 76.8783 9.71867 76.169 9.7C75.8143 9.68133 75.5156 9.94267 75.273 10.484C75.0303 11.0253 74.8436 11.7067 74.713 12.528C74.601 13.3307 74.5356 14.2173 74.517 15.188C74.4983 16.14 74.5356 17.0267 74.629 17.848C74.7223 18.6507 74.8716 19.3133 75.077 19.836C75.301 20.3587 75.581 20.592 75.917 20.536ZM91.1783 5.78C91.4023 5.724 91.5796 5.76133 91.7103 5.892C91.8596 6.004 91.9529 6.144 91.9903 6.312C92.0276 6.48 91.9996 6.648 91.9063 6.816C91.8316 6.984 91.6823 7.08667 91.4583 7.124C90.6929 7.404 90.0489 7.83333 89.5263 8.412C89.0036 8.99067 88.5649 9.65333 88.2103 10.4C87.8743 11.1467 87.6036 11.9493 87.3983 12.808C87.1929 13.6667 87.0343 14.516 86.9223 15.356C86.8289 16.1773 86.7543 16.9707 86.6983 17.736C86.6423 18.5013 86.5863 19.164 86.5303 19.724C86.5116 19.9667 86.3623 20.1533 86.0823 20.284C85.8209 20.4147 85.5223 20.48 85.1863 20.48C84.8689 20.48 84.5516 20.4333 84.2343 20.34C83.9356 20.228 83.7396 20.0787 83.6463 19.892C83.4036 19.388 83.1423 18.6507 82.8623 17.68C82.5823 16.7093 82.3396 15.636 82.1343 14.46C81.9289 13.2653 81.7796 12.024 81.6863 10.736C81.5929 9.448 81.6116 8.244 81.7423 7.124C81.7796 6.732 82.0129 6.44267 82.4423 6.256C82.8716 6.05067 83.3383 5.948 83.8423 5.948C84.3463 5.948 84.8129 6.04133 85.2423 6.228C85.6716 6.41467 85.9143 6.704 85.9703 7.096L85.6623 14.572C85.7369 13.732 85.8489 12.8547 85.9983 11.94C86.1663 11.0253 86.4369 10.1573 86.8103 9.336C87.2023 8.51467 87.7436 7.78667 88.4343 7.152C89.1249 6.51733 90.0396 6.06 91.1783 5.78ZM94.8524 15.048C95.0204 16.0187 95.2724 16.84 95.6084 17.512C95.9631 18.184 96.3831 18.5293 96.8684 18.548C97.2417 18.548 97.6057 18.4267 97.9604 18.184C98.3151 17.9227 98.6324 17.596 98.9124 17.204C99.1924 16.7933 99.4164 16.3453 99.5844 15.86C99.7524 15.3747 99.8271 14.908 99.8084 14.46C99.7897 14.2173 99.8551 14.04 100.004 13.928C100.154 13.7973 100.322 13.732 100.508 13.732C100.676 13.732 100.835 13.788 100.984 13.9C101.134 14.012 101.208 14.18 101.208 14.404C101.227 14.9267 101.134 15.5147 100.928 16.168C100.723 16.8213 100.434 17.4373 100.06 18.016C99.6871 18.576 99.2204 19.0427 98.6604 19.416C98.1191 19.7893 97.5031 19.9667 96.8124 19.948C96.1964 19.9293 95.5617 19.808 94.9084 19.584C94.2551 19.3413 93.6484 18.9867 93.0884 18.52C92.5471 18.0533 92.0804 17.4653 91.6884 16.756C91.3151 16.028 91.0911 15.1693 91.0164 14.18C90.9044 12.7427 91.0071 11.5387 91.3244 10.568C91.6417 9.57867 92.0617 8.78533 92.5844 8.188C93.1071 7.572 93.6857 7.124 94.3204 6.844C94.9551 6.54533 95.5524 6.368 96.1124 6.312C96.8404 6.21867 97.4751 6.312 98.0164 6.592C98.5577 6.872 99.0057 7.24533 99.3604 7.712C99.7151 8.16 99.9577 8.67333 100.088 9.252C100.238 9.83067 100.266 10.372 100.172 10.876C100.06 11.548 99.8084 12.1267 99.4164 12.612C99.0431 13.0973 98.5951 13.508 98.0724 13.844C97.5497 14.1613 96.9991 14.4227 96.4204 14.628C95.8604 14.8147 95.3377 14.9547 94.8524 15.048ZM94.6844 13.704C95.0204 13.6107 95.4124 13.4893 95.8604 13.34C96.3084 13.1907 96.7284 12.9947 97.1204 12.752C97.5311 12.5093 97.8857 12.22 98.1844 11.884C98.5017 11.5293 98.6977 11.1187 98.7724 10.652C98.8284 10.2787 98.8097 9.91467 98.7164 9.56C98.6231 9.18667 98.4644 8.86 98.2404 8.58C98.0351 8.3 97.7644 8.076 97.4284 7.908C97.1111 7.74 96.7471 7.67467 96.3364 7.712C95.9631 7.73067 95.6551 7.92667 95.4124 8.3C95.1697 8.67333 94.9831 9.14933 94.8524 9.728C94.7217 10.288 94.6471 10.9227 94.6284 11.632C94.6097 12.3227 94.6284 13.0133 94.6844 13.704Z" fill="#9600DC" fill-opacity="0.5"/>
<path d="M51.096 5.724C51.0587 5.31333 51.0773 4.98667 51.152 4.744C51.2267 4.50133 51.3387 4.324 51.488 4.212C51.6373 4.08133 51.824 3.99733 52.048 3.96C52.2533 3.904 52.4773 3.86667 52.72 3.848C53.4107 3.792 54.036 3.94133 54.596 4.296C55.1373 4.632 55.5853 5.07067 55.94 5.612C56.2947 6.15333 56.556 6.76 56.724 7.432C56.892 8.08533 56.9387 8.70133 56.864 9.28C56.7893 9.84 56.5933 10.3253 56.276 10.736C55.94 11.1467 55.464 11.3707 54.848 11.408C53.28 11.52 52.0107 11.8933 51.04 12.528C50.0507 13.144 49.332 13.8813 48.884 14.74C48.436 15.58 48.24 16.4853 48.296 17.456C48.352 18.408 48.6227 19.2853 49.108 20.088C49.5933 20.8907 50.284 21.5533 51.18 22.076C52.0573 22.58 53.112 22.8133 54.344 22.776C54.8667 22.7573 55.3893 22.636 55.912 22.412C56.416 22.1693 56.8827 21.824 57.312 21.376C57.7227 20.928 58.068 20.3867 58.348 19.752C58.628 19.1173 58.7867 18.3893 58.824 17.568C58.8427 17.2507 58.852 16.98 58.852 16.756C58.8333 16.532 58.824 16.3733 58.824 16.28C58.824 16 58.7493 15.7853 58.6 15.636C58.4507 15.4867 58.2827 15.412 58.096 15.412C57.9093 15.412 57.7507 15.4867 57.62 15.636C57.4707 15.7853 57.4053 16 57.424 16.28C57.48 17.12 57.452 17.876 57.34 18.548C57.2093 19.22 57.004 19.7987 56.724 20.284C56.444 20.7507 56.108 21.1053 55.716 21.348C55.3053 21.572 54.8573 21.6747 54.372 21.656C53.7747 21.6187 53.252 21.404 52.804 21.012C52.356 20.6013 52.0013 20.0973 51.74 19.5C51.4787 18.9027 51.3293 18.2587 51.292 17.568C51.2547 16.8773 51.3573 16.224 51.6 15.608C51.824 14.992 52.2067 14.46 52.748 14.012C53.2707 13.564 53.9707 13.284 54.848 13.172C56.08 13.0227 57.088 12.6213 57.872 11.968C58.656 11.296 59.2067 10.5213 59.524 9.644C59.8413 8.76667 59.9347 7.84267 59.804 6.872C59.6733 5.90133 59.328 5.03333 58.768 4.268C58.1893 3.50267 57.396 2.90533 56.388 2.476C55.3613 2.028 54.12 1.89733 52.664 2.084C52.3093 2.12133 51.936 2.224 51.544 2.392C51.1333 2.54133 50.7693 2.76533 50.452 3.064C50.116 3.36267 49.864 3.75467 49.696 4.24C49.528 4.70667 49.4907 5.276 49.584 5.948C49.6587 6.228 49.7893 6.424 49.976 6.536C50.144 6.648 50.3213 6.69467 50.508 6.676C50.676 6.63867 50.8253 6.54533 50.956 6.396C51.068 6.228 51.1147 6.004 51.096 5.724Z" fill="#9600DC"/>
</svg>
